<svg id="visual" viewBox="0 0 900 600" width="900" height="600" xmlns="http://www.w3.org/2000/svg" xmlns:xlink="http://www.w3.org/1999/xlink" version="1.1"><path d="M0 175L21.5 178.2C43 181.3 86 187.7 128.8 175.8C171.7 164 214.3 134 257.2 132.2C300 130.3 343 156.7 385.8 171C428.7 185.3 471.3 187.7 514.2 169.7C557 151.7 600 113.3 642.8 99.8C685.7 86.3 728.3 97.7 771.2 107.2C814 116.7 857 124.3 878.5 128.2L900 132L900 0L878.5 0C857 0 814 0 771.2 0C728.3 0 685.7 0 642.8 0C600 0 557 0 514.2 0C471.3 0 428.7 0 385.8 0C343 0 300 0 257.2 0C214.3 0 171.7 0 128.8 0C86 0 43 0 21.5 0L0 0Z" fill="#6e17f0" stroke-linecap="round" stroke-linejoin="miter"></path></svg>