<svg id="visual" viewBox="0 0 900 600" width="900" height="600" xmlns="http://www.w3.org/2000/svg" xmlns:xlink="http://www.w3.org/1999/xlink" version="1.1"><path d="M0 159L21.5 167.5C43 176 86 193 128.8 180.7C171.7 168.3 214.3 126.7 257.2 116.7C300 106.7 343 128.3 385.8 140.3C428.7 152.3 471.3 154.7 514.2 147.8C557 141 600 125 642.8 113.2C685.7 101.3 728.3 93.7 771.2 100.3C814 107 857 128 878.5 138.5L900 149L900 0L878.5 0C857 0 814 0 771.2 0C728.3 0 685.7 0 642.8 0C600 0 557 0 514.2 0C471.3 0 428.7 0 385.8 0C343 0 300 0 257.2 0C214.3 0 171.7 0 128.8 0C86 0 43 0 21.5 0L0 0Z" fill="#6e17f0" stroke-linecap="round" stroke-linejoin="miter"></path></svg>