<svg id="visual" viewBox="0 0 900 600" width="900" height="600" xmlns="http://www.w3.org/2000/svg" xmlns:xlink="http://www.w3.org/1999/xlink" version="1.1"><path d="M0 107L21.5 126C43 145 86 183 128.8 178.5C171.7 174 214.3 127 257.2 121.7C300 116.3 343 152.7 385.8 175.8C428.7 199 471.3 209 514.2 207.8C557 206.7 600 194.3 642.8 174.5C685.7 154.7 728.3 127.3 771.2 133.7C814 140 857 180 878.5 200L900 220L900 0L878.5 0C857 0 814 0 771.2 0C728.3 0 685.7 0 642.8 0C600 0 557 0 514.2 0C471.3 0 428.7 0 385.8 0C343 0 300 0 257.2 0C214.3 0 171.7 0 128.8 0C86 0 43 0 21.5 0L0 0Z" fill="#6e17f0" stroke-linecap="round" stroke-linejoin="miter"></path></svg>