<?xml version="1.0" encoding="UTF-8" standalone="no" ?>
<!DOCTYPE svg PUBLIC "-//W3C//DTD SVG 1.1//EN" "http://www.w3.org/Graphics/SVG/1.1/DTD/svg11.dtd">
<svg xmlns="http://www.w3.org/2000/svg" xmlns:xlink="http://www.w3.org/1999/xlink" version="1.1" width="500" height="500" viewBox="0 0 500 500" xml:space="preserve">
<desc>Created with Fabric.js 4.6.0</desc>
<defs>
</defs>
<g transform="matrix(1 0 0 1 250 75)" id="Ik1ss3e2BVbN9ZhAP0B6k"  >
<path style="stroke: none; stroke-width: 1; stroke-dasharray: none; stroke-linecap: round; stroke-dashoffset: 0; stroke-linejoin: miter; stroke-miterlimit: 4; fill: rgb(110,23,240); fill-rule: nonzero; opacity: 1;" vector-effect="non-scaling-stroke"  transform=" translate(-250, -75)" d="M 0 0 L 11.94402 12.924 C 23.88804 25.915 47.77809 51.763 71.55514 67.634 C 95.38919 83.50450000000001 119.05524 89.2635 142.88828 85.7145 C 166.66633000000002 82.1655 190.55438 69.174 214.33342 54.2415 C 238.16746999999998 39.308 261.83352 22.299500000000002 285.66656 14.531500000000001 C 309.44461 6.696500000000001 333.33266000000003 8.036000000000001 357.1117 22.299500000000002 C 380.94575 36.6295 404.6118 63.8175 428.44484 75.87100000000001 C 452.22289 87.92450000000001 476.11094 84.84400000000001 488.05596 83.23700000000001 L 499.99998000000005 81.69650000000001 L 499.99998000000005 150 L 488.05596 150 C 476.11194 150 452.22189000000003 150 428.44484 150 C 404.61079 150 380.94474 150 357.1117 150 C 333.33365 150 309.4456 150 285.66656 150 C 261.83251 150 238.16646 150 214.33342 150 C 190.55536999999998 150 166.66732 150 142.88828 150 C 119.05423 150 95.38818 150 71.55514000000001 150 C 47.77709000000001 150 23.88904000000001 150 11.944020000000009 150 L 8.881784197001252e-15 150 z" stroke-linecap="round" />
</g>
</svg>